HIERARCHY
ROOT Hips
{
  OFFSET 0.000000 0.000000 0.000000
  CHANNELS 6 Xposition Yposition Zposition Xrotation Yrotation Zrotation
  JOINT Spine
  {
    OFFSET -16.358602 1.828309 -11.432522
    CHANNELS 3 Xrotation Yrotation Zrotation
    JOINT Chest
    {
      OFFSET -16.358602 1.828309 -11.432522
      CHANNELS 3 Xrotation Yrotation Zrotation
      JOINT Neck
      {
        OFFSET -8.880462 -1.937083 -7.694816
        CHANNELS 3 Xrotation Yrotation Zrotation
        JOINT Head
        {
          OFFSET 4.128385 -9.240175 -3.022280
          CHANNELS 3 Xrotation Yrotation Zrotation
          End Site
          {
            OFFSET 0.0 0.0 5.0
          }
        }
      }
      JOINT LeftShoulder
      {
        OFFSET -2.009933 -5.930026 7.868551
        CHANNELS 3 Xrotation Yrotation Zrotation
        JOINT LeftArm
        {
          OFFSET 14.430994 -5.998932 -6.594132
          CHANNELS 3 Xrotation Yrotation Zrotation
          JOINT LeftForeArm
          {
            OFFSET 2.539480 -7.791439 -14.465773
            CHANNELS 3 Xrotation Yrotation Zrotation
            JOINT LeftHand
            {
              OFFSET -5.000000 0.000000 0.000000
              CHANNELS 3 Xrotation Yrotation Zrotation
              End Site
              {
                OFFSET 0.0 0.0 5.0
              }
            }
          }
        }
      }
      JOINT RightShoulder
      {
        OFFSET 2.009933 5.930026 -7.868551
        CHANNELS 3 Xrotation Yrotation Zrotation
        JOINT RightArm
        {
          OFFSET 10.134590 -11.861017 -7.784295
          CHANNELS 3 Xrotation Yrotation Zrotation
          JOINT RightForeArm
          {
            OFFSET -1.465267 -13.677672 -8.802342
            CHANNELS 3 Xrotation Yrotation Zrotation
            JOINT RightHand
            {
              OFFSET 5.000000 0.000000 0.000000
              CHANNELS 3 Xrotation Yrotation Zrotation
              End Site
              {
                OFFSET 0.0 0.0 5.0
              }
            }
          }
        }
      }
    }
  }
  JOINT LeftUpLeg
  {
    OFFSET -0.146412 -4.472220 6.852908
    CHANNELS 3 Xrotation Yrotation Zrotation
    JOINT LeftLeg
    {
      OFFSET 30.240823 -19.119577 7.723191
      CHANNELS 3 Xrotation Yrotation Zrotation
      JOINT LeftFoot
      {
        OFFSET 21.780694 -13.368560 9.803674
        CHANNELS 3 Xrotation Yrotation Zrotation
        JOINT LeftToeBase
        {
          OFFSET 5.471778 -8.016554 -5.193800
          CHANNELS 3 Xrotation Yrotation Zrotation
          End Site
          {
            OFFSET 0.0 0.0 5.0
          }
        }
      }
    }
  }
  JOINT RightUpLeg
  {
    OFFSET 0.146412 4.472220 -6.852908
    CHANNELS 3 Xrotation Yrotation Zrotation
    JOINT RightLeg
    {
      OFFSET -26.761007 -20.673704 -16.152711
      CHANNELS 3 Xrotation Yrotation Zrotation
      JOINT RightFoot
      {
        OFFSET -42.121264 -18.926984 -7.076482
        CHANNELS 3 Xrotation Yrotation Zrotation
        JOINT RightToeBase
        {
          OFFSET -18.315911 -4.085934 -10.104081
          CHANNELS 3 Xrotation Yrotation Zrotation
          End Site
          {
            OFFSET 0.0 0.0 5.0
          }
        }
      }
    }
  }
}
MOTION
Frames: 16
Frame Time: 0.033333
0.000000 0.000000 0.000000 0.000000 0.000000 0.000000 0.000000 0.000000 0.000000 0.000000 0.000000 0.000000 0.000000 0.000000 0.000000 0.000000 0.000000 0.000000 0.000000 0.000000 0.000000 0.000000 0.000000 0.000000 -61.884615 -50.755888 103.292505 0.000000 0.000000 0.000000 0.000000 0.000000 0.000000 0.000000 0.000000 0.000000 -25.076581 24.257468 -91.962472 0.000000 0.000000 0.000000 0.000000 0.000000 0.000000 0.000000 0.000000 0.000000 0.000000 0.000000 0.000000 0.000000 0.000000 0.000000 0.000000 0.000000 0.000000 0.000000 0.000000 0.000000 0.000000 0.000000 0.000000 0.000000 0.000000 0.000000
0.000000 0.000000 0.000000 -20.690490 49.196382 21.201961 -11.713191 -64.304335 6.615510 -95.453292 42.152935 -24.272038 -37.761975 -25.698886 -81.579018 0.000000 0.000000 0.000000 -53.171583 -50.797797 81.454143 -125.837340 -7.096804 142.373520 29.622808 -2.844036 -169.273655 0.000000 0.000000 0.000000 -32.260330 -12.286826 -46.796822 -31.078749 16.229058 -43.099641 -15.627412 11.602052 -106.971953 0.000000 0.000000 0.000000 -18.351554 -1.757396 44.481057 -92.778695 -33.341710 71.714334 71.592632 -45.004831 66.555406 0.000000 0.000000 0.000000 -53.410529 42.045837 -55.689284 -7.740581 16.378884 -24.140067 4.951167 11.818492 -15.881115 0.000000 0.000000 0.000000
0.000000 0.000000 0.000000 0.000000 0.000000 0.000000 0.000000 0.000000 0.000000 0.000000 0.000000 0.000000 0.000000 0.000000 0.000000 0.000000 0.000000 0.000000 0.000000 0.000000 0.000000 0.000000 0.000000 0.000000 0.000000 0.000000 0.000000 0.000000 0.000000 0.000000 0.000000 0.000000 0.000000 0.000000 0.000000 0.000000 0.000000 0.000000 0.000000 0.000000 0.000000 0.000000 0.000000 0.000000 0.000000 0.000000 0.000000 0.000000 0.000000 0.000000 0.000000 0.000000 0.000000 0.000000 0.000000 0.000000 0.000000 0.000000 0.000000 0.000000 0.000000 0.000000 0.000000 0.000000 0.000000 0.000000
0.000000 0.000000 0.000000 -33.905579 12.466015 3.001327 102.900993 -24.796968 -124.267276 -45.256597 6.369488 -7.557704 -132.856654 68.690424 106.428128 0.000000 0.000000 0.000000 -63.764927 -5.176539 -150.912271 104.444972 22.369539 24.473238 31.854118 -13.962878 -133.550210 0.000000 0.000000 0.000000 -109.312483 74.131381 175.332824 133.412352 13.836291 -7.315570 7.713252 18.083468 45.917895 0.000000 0.000000 0.000000 84.849536 -58.443824 -160.762220 48.852825 -41.594298 -108.453139 -75.279174 50.451621 -161.730721 0.000000 0.000000 0.000000 -17.704216 36.643527 -81.549242 6.774599 -4.030112 -21.549618 36.651979 0.157340 -55.913926 0.000000 0.000000 0.000000
0.000000 0.000000 0.000000 -39.712747 5.318216 0.539398 97.247295 -19.903299 -119.977554 -47.705182 4.175774 -8.654386 -134.496457 68.540375 104.845674 0.000000 0.000000 0.000000 -58.002876 -10.566760 -149.551001 101.287147 21.298388 22.886838 40.938763 -21.708683 -125.622907 0.000000 0.000000 0.000000 -111.756403 76.983563 174.327080 128.872812 11.150025 -7.991101 11.081729 21.756919 53.567662 0.000000 0.000000 0.000000 66.536635 -58.354133 -140.220046 9.456978 -16.769959 -36.194788 -48.160020 -21.594434 -79.707572 0.000000 0.000000 0.000000 7.298507 29.674782 -67.297513 2.337176 3.405260 -25.714715 44.872148 -12.425435 -57.560077 0.000000 0.000000 0.000000
0.000000 0.000000 0.000000 -39.381657 2.145298 -0.197573 95.300416 -14.975284 -119.460310 -46.060234 4.925497 -8.116315 -136.453968 66.725169 101.799694 0.000000 0.000000 0.000000 -68.898576 -0.612446 -152.573940 95.851466 22.832571 21.467619 41.109484 -20.833108 -127.766705 0.000000 0.000000 0.000000 -105.811649 78.005220 -178.883236 127.482553 13.440043 -7.803084 10.978182 22.150868 52.295061 0.000000 0.000000 0.000000 80.905843 -60.186344 -155.196190 21.583820 -23.260255 -63.668762 -62.840944 25.917994 -150.541196 0.000000 0.000000 0.000000 13.749254 26.293169 -63.031362 1.882516 3.618969 -23.980055 40.995592 -5.763935 -57.110143 0.000000 0.000000 0.000000
0.000000 0.000000 0.000000 -42.487306 -0.577579 -0.880772 93.242992 -11.428333 -118.472476 -45.758289 5.437550 -7.916786 -175.290849 50.863648 64.911066 0.000000 0.000000 0.000000 -82.516625 8.526202 -159.833146 89.900287 24.135698 19.701043 35.844571 -17.827878 -128.257247 0.000000 0.000000 0.000000 -168.763165 79.276703 119.331370 128.623483 16.413152 -7.354607 9.406166 16.666361 58.642120 0.000000 0.000000 0.000000 58.114081 -23.631082 -162.054238 64.117069 -23.673192 -142.630877 130.356309 8.704607 55.516205 0.000000 0.000000 0.000000 12.876199 25.597150 -60.960395 1.811433 3.972046 -25.129186 43.209558 -5.923539 -59.552901 0.000000 0.000000 0.000000
0.000000 0.000000 0.000000 -43.006708 -2.629515 -1.308791 92.142643 -9.004759 -118.136395 -45.986326 4.583836 -8.189277 172.962866 48.413542 57.479374 0.000000 0.000000 0.000000 -96.699365 17.693218 -166.945163 83.796419 23.254146 17.310867 44.211254 -20.786973 -131.394607 0.000000 0.000000 0.000000 -152.876109 78.843438 134.220443 133.720219 25.943869 -5.191608 6.999478 11.374126 63.110477 0.000000 0.000000 0.000000 45.757322 -13.611205 -156.113320 59.072337 -20.886696 -136.947963 134.326158 16.954148 57.134633 0.000000 0.000000 0.000000 12.487344 25.596527 -60.699772 1.501455 3.961334 -23.177274 40.467857 -3.157972 -58.186604 0.000000 0.000000 0.000000
0.000000 0.000000 0.000000 -43.595148 -3.271059 -1.432714 92.956084 -11.841473 -118.045663 -46.920428 2.766493 -8.847128 -178.788904 55.329012 64.217561 0.000000 0.000000 0.000000 -101.121265 21.640074 -168.371507 82.062964 20.652154 16.171219 59.598639 -22.799828 -141.207485 0.000000 0.000000 0.000000 -139.746702 78.260614 146.677838 132.075861 25.224937 -5.617795 9.938942 15.977107 63.564064 0.000000 0.000000 0.000000 58.810521 -32.381690 -152.999542 63.934595 -43.240793 -129.324842 -69.488341 62.351843 -149.567316 0.000000 0.000000 0.000000 16.765690 22.595910 -57.489312 1.470451 3.496705 -20.948885 39.976175 -6.044046 -55.741095 0.000000 0.000000 0.000000
0.000000 0.000000 0.000000 -44.520872 -4.330512 -1.623609 91.764854 -8.119205 -118.044860 -46.412286 4.982262 -8.177804 170.986024 46.126618 55.922536 0.000000 0.000000 0.000000 -120.948681 25.869434 177.348186 76.434274 22.699488 14.694436 75.857563 -26.173037 -146.780546 0.000000 0.000000 0.000000 -144.223364 73.954536 139.922179 139.995369 40.010907 -0.502872 6.062350 9.442872 65.331698 0.000000 0.000000 0.000000 32.777494 -0.181371 -152.944531 59.865678 -16.280298 -142.221913 127.533003 9.756021 54.603662 0.000000 0.000000 0.000000 14.965621 22.902529 -56.813942 -0.529396 6.140441 -19.726172 39.076925 -2.922706 -56.705354 0.000000 0.000000 0.000000
0.000000 0.000000 0.000000 -45.270596 -4.927582 -1.716841 92.416809 -10.175947 -118.030905 -47.306683 3.762162 -8.674437 164.920621 44.402762 52.487976 0.000000 0.000000 0.000000 -123.900600 28.552572 176.419799 74.311219 23.111802 14.042874 81.698263 -31.386379 -143.998881 0.000000 0.000000 0.000000 -143.853281 73.869980 140.232489 139.434923 44.392684 0.437546 7.333799 10.130617 71.735717 0.000000 0.000000 0.000000 32.616730 -0.796866 -150.846658 57.317264 -18.076922 -136.339913 131.557303 18.012373 56.092346 0.000000 0.000000 0.000000 14.401144 23.042309 -56.683428 -0.836598 6.656150 -20.113851 39.010319 -2.560554 -56.869555 0.000000 0.000000 0.000000
0.000000 0.000000 0.000000 -46.988594 -7.210313 -2.056567 91.493407 -11.292518 -116.714581 -51.399844 0.605197 -10.179776 171.382786 55.815895 58.190587 0.000000 0.000000 0.000000 -113.003129 25.097587 -176.646126 68.882844 28.729570 12.754845 142.946959 -39.523120 -166.270043 0.000000 0.000000 0.000000 -155.569766 76.373757 130.374084 123.701882 33.735866 -6.403462 13.133033 17.348706 74.070379 0.000000 0.000000 0.000000 37.162637 -28.823346 -120.133985 12.604221 -21.593186 -44.933631 -45.769230 -5.472358 -99.269939 0.000000 0.000000 0.000000 27.853030 14.625110 -52.368942 -1.741054 7.898391 -19.705322 32.705743 -4.538042 -47.795899 0.000000 0.000000 0.000000
0.000000 0.000000 0.000000 -48.057667 -10.563015 -2.545651 90.636085 -8.355540 -116.795999 -51.797499 -0.580112 -10.499380 170.315924 54.099174 57.173255 0.000000 0.000000 0.000000 -92.390302 13.789223 -165.687478 76.310753 32.359626 16.185385 147.205712 -36.734957 -168.839550 0.000000 0.000000 0.000000 -172.258768 80.788913 116.699628 121.893982 32.111268 -6.983871 12.698377 15.959550 76.882328 0.000000 0.000000 0.000000 32.870328 -24.465450 -114.993120 9.981793 -15.978455 -36.876909 -44.433754 -11.739436 -82.622260 0.000000 0.000000 0.000000 34.412132 10.210606 -51.321289 -1.885202 8.092388 -19.605214 27.840906 0.899603 -45.061660 0.000000 0.000000 0.000000
0.000000 0.000000 0.000000 -50.105951 -14.336136 -2.927059 87.018057 -0.853273 -115.702888 -53.360796 -1.800806 -10.995102 165.853698 48.344706 53.573806 0.000000 0.000000 0.000000 -100.304779 19.011337 -169.385269 74.417181 33.046462 15.493483 -176.863608 -27.361121 179.236378 0.000000 0.000000 0.000000 151.094307 75.938393 81.987960 128.168307 30.465254 -5.661010 7.617176 9.161258 79.446878 0.000000 0.000000 0.000000 31.779602 -19.373070 -117.428197 10.559803 -14.392767 -37.255927 -39.631157 1.127048 -82.502561 0.000000 0.000000 0.000000 40.043777 4.303342 -48.879185 -1.511943 6.567324 -13.846010 20.984873 -0.700161 -34.228350 0.000000 0.000000 0.000000
0.000000 0.000000 0.000000 -50.440843 -15.843675 -3.103220 86.100914 1.313414 -115.578172 -53.445899 -2.868834 -11.219788 160.145115 47.048720 50.353552 0.000000 0.000000 0.000000 -92.809959 15.441726 -164.840627 79.666715 32.129665 17.552025 -178.385526 -24.760560 179.645595 0.000000 0.000000 0.000000 141.235071 75.589152 73.366445 127.687991 31.806206 -5.605342 6.693573 7.682772 82.107138 0.000000 0.000000 0.000000 30.590642 -16.748535 -117.273088 11.339006 -14.645079 -39.112280 -40.371334 1.699620 -85.690237 0.000000 0.000000 0.000000 38.807421 4.784129 -48.495760 -1.326572 5.855368 -11.763633 22.178020 -0.770217 -35.928755 0.000000 0.000000 0.000000
0.000000 0.000000 0.000000 -59.713419 -27.376397 -2.627320 73.169072 27.738178 -115.652661 -56.351392 -6.409494 -12.244760 147.584295 36.356447 43.919649 0.000000 0.000000 0.000000 -141.029649 41.861349 168.985790 58.939101 21.655959 8.911651 -164.282847 -34.172722 175.141257 0.000000 0.000000 0.000000 150.244126 63.556527 79.643056 153.346111 46.320978 6.701485 -9.002181 -10.349200 81.998636 0.000000 0.000000 0.000000 -27.444165 58.703179 -149.756656 47.141340 -23.866239 -114.112392 126.842707 79.600641 53.198566 0.000000 0.000000 0.000000 36.455721 -15.302184 -28.524311 -6.166624 2.014408 39.893839 -2.596676 -14.068505 8.830632 0.000000 0.000000 0.000000
